<svg width="34" height="34" viewBox="0 0 34 34" fill="none" xmlns="http://www.w3.org/2000/svg">
<circle cx="17" cy="17" r="17" fill="#EEF8ED"/>
<g clip-path="url(#clip0_18_25051)">
<path d="M17.0167 24.1083C15.075 24.1083 13.1333 23.8 11.2917 23.1833C10.5917 22.9417 10.0583 22.45 9.82499 21.8083C9.58333 21.1667 9.66666 20.4583 10.05 19.825L11.0083 18.2333C11.2083 17.9 11.3917 17.2333 11.3917 16.8417V14.4333C11.3917 11.3333 13.9167 8.80835 17.0167 8.80835C20.1167 8.80835 22.6417 11.3333 22.6417 14.4333V16.8417C22.6417 17.225 22.825 17.9 23.025 18.2417L23.975 19.825C24.3333 20.425 24.4 21.15 24.1583 21.8083C23.9167 22.4667 23.3917 22.9667 22.7333 23.1833C20.9 23.8 18.9583 24.1083 17.0167 24.1083ZM17.0167 10.0583C14.6083 10.0583 12.6417 12.0167 12.6417 14.4333V16.8417C12.6417 17.45 12.3917 18.35 12.0833 18.875L11.125 20.4667C10.9417 20.775 10.8917 21.1 11 21.375C11.1 21.6583 11.35 21.875 11.6917 21.9917C15.175 23.1583 18.8667 23.1583 22.35 21.9917C22.65 21.8917 22.8833 21.6667 22.9917 21.3667C23.1 21.0667 23.075 20.7417 22.9083 20.4667L21.95 18.875C21.6333 18.3333 21.3917 17.4417 21.3917 16.8333V14.4333C21.3917 12.0167 19.4333 10.0583 17.0167 10.0583Z" fill="#1B5E37"/>
<path d="M18.5667 10.2833C18.5083 10.2833 18.45 10.2749 18.3917 10.2583C18.15 10.1916 17.9167 10.1416 17.6917 10.1083C16.9833 10.0166 16.3 10.0666 15.6583 10.2583C15.425 10.3333 15.175 10.2583 15.0167 10.0833C14.8583 9.90828 14.8083 9.65828 14.9 9.43328C15.2417 8.55828 16.075 7.98328 17.025 7.98328C17.975 7.98328 18.8083 8.54994 19.15 9.43328C19.2333 9.65828 19.1917 9.90828 19.0333 10.0833C18.9083 10.2166 18.7333 10.2833 18.5667 10.2833Z" fill="#1B5E37"/>
<path d="M17.0167 26.0083C16.1917 26.0083 15.3917 25.675 14.8083 25.0916C14.225 24.5083 13.8917 23.7083 13.8917 22.8833H15.1417C15.1417 23.375 15.3417 23.8583 15.6917 24.2083C16.0417 24.5583 16.525 24.7583 17.0167 24.7583C18.05 24.7583 18.8917 23.9166 18.8917 22.8833H20.1417C20.1417 24.6083 18.7417 26.0083 17.0167 26.0083Z" fill="#1B5E37"/>
<circle cx="17.0833" cy="9.08333" r="2.08333" fill="#F24135"/>
</g>
<defs>
<clipPath id="clip0_18_25051">
<rect width="20" height="20" fill="white" transform="translate(7 7)"/>
</clipPath>
</defs>
</svg>
